<svg width="117" height="24" viewBox="0 0 117 24" fill="none" xmlns="http://www.w3.org/2000/svg">
<path fill-rule="evenodd" clip-rule="evenodd" d="M105.305 0.862209H116.736V2.68371C116.404 2.57222 116.057 2.51474 115.707 2.51349H109.135V11.025H115.527C115.987 11.025 116.395 10.9746 116.736 10.8887V12.7022C116.446 12.6343 116.047 12.5999 115.553 12.5999H109.135V21.4009H115.51C115.86 21.4009 116.277 21.35 116.736 21.2392V23.1969H105.322C105.413 22.8526 105.459 22.4979 105.458 22.1417V1.94293C105.458 1.50066 105.407 1.13476 105.305 0.862209ZM102.659 6.65867L99.3559 6.63371C99.1942 4.77776 98.1305 2.98122 95.7898 2.65026C90.7761 2.19901 89.3629 7.70544 89.4907 11.7318C89.619 15.6129 90.2394 21.5796 95.4149 21.5796C97.5858 21.5796 99.6709 19.3493 99.6025 17.4684L102.659 17.4434C102.437 21.3245 97.9857 23.5713 95.8662 23.6482C88.6231 23.8953 85.5921 19.0687 85.4393 12.1821C85.3036 5.94434 87.8569 0.402466 95.0151 0.402466C101.143 0.487825 102.327 4.11386 102.659 6.65867ZM51.1458 20.6601L53.3337 18.8301C54.4738 20.7115 55.4103 21.5706 57.6746 21.5706C59.9723 21.5706 61.9051 20.1749 61.9051 17.707C61.9051 16.4895 61.4109 15.4936 60.4325 14.7449C59.9892 14.3954 58.8661 13.7914 57.0955 12.9488C54.4484 11.6809 51.8696 10.0291 51.8696 6.71008C51.8696 2.52198 55.4273 0.675017 59.1806 0.538242C61.4024 0.453382 64.1604 1.67986 65.275 3.05809L63.0537 4.76878C62.6575 4.02944 62.0685 3.41118 61.3492 2.97964C60.6299 2.54811 59.8072 2.3194 58.9684 2.31781C56.1336 2.31781 53.8868 5.6034 56.2359 7.86768C56.8314 8.44622 58.0494 9.16105 59.9049 10.0121C62.8665 11.3999 65.3943 13.0591 65.3943 16.7281C65.3943 17.996 65.0624 19.1791 64.407 20.2603C63.0881 22.4392 60.8833 23.5289 57.8023 23.5289C54.2612 23.5289 53.5638 22.7202 51.1458 20.6601ZM19.9766 0.862209H31.3983V2.68371C31.0665 2.57226 30.719 2.51479 30.369 2.51349H23.7983V11.025H30.1903C30.65 11.025 31.0589 10.9746 31.3988 10.8887V12.7022C31.1093 12.6343 30.7094 12.5999 30.2247 12.5999H23.7983V21.4009H30.1733C30.5223 21.4009 30.9396 21.35 31.3988 21.2392V23.1969H19.9941C20.0775 22.8513 20.1202 22.4972 20.1214 22.1417V1.94293C20.1214 1.50066 20.07 1.13476 19.9766 0.862209ZM0 0.862209H4.15366V1.06687C4.15366 1.25406 4.21306 1.50066 4.3154 1.81564L10.1708 19.4431L16.1804 1.73877C16.2737 1.44126 16.3251 1.15173 16.3251 0.862209H18.3423C18.1381 1.21962 17.9849 1.5351 17.891 1.81564L11.0303 22.2864C10.9625 22.4821 10.9031 22.7886 10.8521 23.1974H7.44724C7.39579 22.888 7.31899 22.5833 7.21762 22.2864L0.493687 1.97737C0.338365 1.60282 0.17644 1.23104 0.00798685 0.862209H0ZM44.1154 12.5065C46.8389 11.9699 48.9245 9.88485 48.9245 6.90576C48.9245 2.99819 45.6558 0.86171 41.9959 0.86171H35.3059C35.3992 1.20265 35.4506 1.56006 35.4506 1.93444V22.1237C35.4506 22.558 35.3992 22.9239 35.3059 23.1964H39.2893C39.1919 22.8472 39.1432 22.4862 39.1446 22.1237V12.847L40.421 12.9833L47.0945 23.1964H51.1034L44.1154 12.5065ZM43.426 10.8043C42.7027 11.3145 41.8341 11.5696 40.8383 11.5696H39.1361V2.48903H40.6596C41.9624 2.48903 42.9748 2.812 43.6986 3.45843C44.6859 4.35296 45.1881 5.56147 45.1881 7.07648C45.1881 8.71079 44.6006 9.95374 43.426 10.8048M84.7754 22.2695L77.3367 1.60299C77.254 1.36404 77.2053 1.11469 77.1919 0.862209H73.9737C73.9737 1.12627 73.9313 1.40681 73.829 1.68785L66.6203 22.2695C66.526 22.5665 66.3732 22.8735 66.1691 23.1969H68.2457C68.2377 22.8565 68.2801 22.5415 68.3739 22.2695L70.5094 16.2H78.7234L80.8344 22.27C80.9452 22.6009 80.9962 22.9074 80.9962 23.1969H85.3036C85.056 22.848 84.8778 22.533 84.7754 22.2695ZM71.0715 14.5572L74.5443 4.47127L78.1109 14.5572H71.0715Z" fill="white"/>
</svg>
