<svg width="135" height="23" viewBox="0 0 135 23" fill="none" xmlns="http://www.w3.org/2000/svg">
<path fill-rule="evenodd" clip-rule="evenodd" d="M11.0116 20.6763C6.29133 20.6763 2.26229 16.395 2.26229 11.7252C2.26229 7.07275 6.20701 2.70639 10.9777 2.70639C14.1137 2.70639 16.3719 4.22359 18.2098 6.60065H20.5191C19.8279 5.35302 19.0862 4.20701 17.9568 3.31327C16.018 1.74562 13.5061 0.818726 11.0116 0.818726C5.02712 0.818726 0.155518 5.75808 0.155518 11.7087C0.155518 17.6758 5.09488 22.5647 11.0455 22.5647C13.473 22.5647 15.85 21.6717 17.755 20.1711C18.9522 19.2103 19.7947 17.9627 20.6042 16.6812H18.2948C16.4735 19.0582 14.1476 20.6763 11.0116 20.6763ZM34.9494 9.29773C33.5 7.42664 31.5272 6.24675 29.0832 6.24675C24.7002 6.24675 21.0928 9.80442 21.0928 14.1874C21.0928 18.5696 24.7175 22.1604 29.0832 22.1604C31.6289 22.1604 33.3983 21.098 34.9494 19.1426V21.8058H36.8544V6.61722H34.9494V9.29773ZM28.9823 20.4068C25.6271 20.4068 22.9805 17.4906 22.9805 14.2039C22.9805 10.9331 25.6105 8.00036 28.9823 8.00036C32.3367 8.00036 34.9494 10.9338 34.9494 14.2039C34.9494 17.4906 32.3194 20.4068 28.9823 20.4068ZM39.1637 21.8058H41.2041V1.25623H39.1637V21.8058ZM48.9076 19.3948L43.7491 6.61722H41.726L47.913 21.8058H49.9693L56.1397 6.61722H54.1504L48.9076 19.3948ZM56.9823 21.8058H59.022V6.61722H56.9823V21.8058ZM56.9823 4.66181H59.022V1.25623H56.9823V4.66181ZM67.8052 6.24603C65.8829 6.24603 64.5178 7.25798 63.2536 8.60652V6.61722H61.3652V21.8058H63.3711V12.5505C63.3545 10.1064 65.3769 7.99964 67.8383 7.99964C70.9225 7.99964 72.4735 10.6801 72.4735 13.445V21.8065H74.3612V13.445C74.3619 9.50026 72.0533 6.24603 67.8052 6.24603ZM93.2934 1.25623L84.0215 13.0399V1.25623H82.0157V21.8058H84.0215V16.1586L86.6516 12.8885L93.3438 21.8058H95.8902L87.9324 11.2697L95.8902 1.25623H93.2934ZM96.6312 21.8058H98.6212V1.25623H96.6312V21.8058ZM115.091 10.4437C113.708 7.86414 110.943 6.24603 108.026 6.24603C103.678 6.24603 100.002 9.87073 100.002 14.2198C100.002 18.602 103.711 22.1597 108.062 22.1597C110.134 22.1597 112.175 21.3337 113.674 19.9008C114.585 19.0409 115.124 17.962 115.612 16.8325H113.472C112.393 18.94 110.488 20.4061 108.026 20.4061C106.526 20.4061 105.06 19.7992 103.948 18.7706C102.8 17.7263 102.295 16.444 102.075 14.9276H116.085C116.086 13.3433 115.866 11.8261 115.091 10.4437ZM102.144 13.1747C102.752 10.3262 104.993 7.99964 108.062 7.99964C110.641 7.99964 113.405 9.58459 114.012 13.1747H102.144ZM117.569 21.8058H119.574V6.61722H117.569V21.8058ZM117.569 4.72956H119.574V1.25623H117.569V4.72956ZM128.392 6.24603C126.435 6.24603 125.07 7.25798 123.789 8.60652V6.61722H121.867V21.8058H123.89V12.5505C123.874 10.0898 125.947 7.99964 128.425 7.99964C131.494 7.99964 133.112 10.6801 133.112 13.445V21.8065H135V13.445C135 9.50026 132.656 6.24603 128.392 6.24603Z" fill="white"/>
</svg>
