<svg width="110" height="26" viewBox="0 0 110 26" fill="none" xmlns="http://www.w3.org/2000/svg">
<g clip-path="url(#clip0_35_800)">
<path d="M99.6327 8.62006L99.4283 8.6847C98.6334 7.04145 97.4978 5.73335 96.0216 4.76038C94.5681 3.7874 92.7398 3.30091 90.5368 3.30091C89.3104 3.30091 88.1408 3.54955 87.0279 4.04682C85.9151 4.52253 84.9385 5.20361 84.0982 6.09007C83.2806 6.95493 82.6219 8.00358 82.1223 9.23602C81.6227 10.4685 81.3728 11.8306 81.3728 13.3225C81.3728 14.8144 81.6227 16.1765 82.1223 17.409C82.6219 18.6414 83.2806 19.7008 84.0982 20.5873C84.9385 21.4522 85.9151 22.1225 87.0279 22.5982C88.1408 23.0738 89.3104 23.3116 90.5368 23.3116C92.7171 23.3116 94.4886 22.9873 95.8513 22.3387C97.2367 21.6684 98.4063 20.6522 99.3602 19.2901L99.5646 19.3547L99.4967 21.4304C98.9743 21.9493 98.3725 22.4142 97.6912 22.8249C97.0098 23.2141 96.2717 23.5493 95.4769 23.8304C94.7046 24.0898 93.8984 24.2844 93.0581 24.4141C92.2178 24.5656 91.3774 24.6414 90.5371 24.6414C88.7884 24.6414 87.1191 24.3711 85.5293 23.8305C83.9395 23.29 82.5428 22.5332 81.339 21.5603C80.1354 20.5657 79.1815 19.3765 78.4774 17.9927C77.7734 16.5873 77.4213 15.0306 77.4213 13.3225C77.4213 11.6144 77.7734 10.0684 78.4774 8.68467C79.1815 7.27924 80.1354 6.07924 81.339 5.08468C82.5427 4.09007 83.9395 3.33331 85.5293 2.8144C87.1191 2.27385 88.7884 2.00357 90.5371 2.00357C91.3774 2.00357 92.2178 2.06843 93.0581 2.19816C93.8984 2.32789 94.7046 2.5333 95.4768 2.8144C96.2717 3.07386 97.0098 3.409 97.6912 3.81982C98.3725 4.20901 98.9743 4.66306 99.4967 5.18197L99.6327 8.62006ZM24.5625 14.8147C24.3128 14.9227 24.0744 15.0633 23.8471 15.2365C23.6199 15.4093 23.5063 15.6472 23.5063 15.95V19.9392C22.4161 21.4311 21.0194 22.5878 19.316 23.4095C17.6127 24.2311 15.7276 24.6419 13.6609 24.6419C11.9121 24.6419 10.2429 24.3716 8.65307 23.8311C7.06329 23.2905 5.66655 22.5338 4.46284 21.5608C3.25915 20.5662 2.30527 19.3771 1.6012 17.9933C0.897178 16.5879 0.545166 15.0311 0.545166 13.323C0.545166 11.6149 0.897178 10.069 1.6012 8.6852C2.30527 7.27977 3.25915 6.07978 4.46284 5.08521C5.66655 4.0906 7.06329 3.33385 8.65307 2.81496C10.2429 2.27439 11.9121 2.0041 13.6609 2.0041C14.5012 2.0041 15.3415 2.06896 16.1819 2.19869C17.0222 2.32842 17.8284 2.53383 18.6006 2.81493C19.3955 3.07439 20.1336 3.40953 20.815 3.82036C21.4963 4.20954 22.0982 4.66359 22.6205 5.18251L22.757 8.62031L22.5526 8.68495C21.7577 7.04169 20.6222 5.73357 19.1459 4.76061C17.6924 3.78762 15.8641 3.30113 13.6611 3.30113C12.4347 3.30113 11.2651 3.54978 10.1523 4.04707C9.03944 4.52276 8.06284 5.20384 7.22251 6.0903C6.40489 6.95517 5.74627 8.00383 5.24667 9.23627C4.74698 10.4687 4.49714 11.8309 4.49714 13.3227C4.49714 14.793 4.73562 16.1443 5.21257 17.3768C5.71224 18.6092 6.37087 19.6687 7.18847 20.5552C8.02876 21.42 9.00534 22.1011 10.1182 22.5984C11.2311 23.074 12.4121 23.3119 13.6611 23.3119C16.0231 23.3119 18.0445 22.8795 19.7251 22.0146V15.9498C19.7251 15.6472 19.6002 15.4093 19.3506 15.2362C19.1233 15.0634 18.8962 14.9228 18.6692 14.8144L18.7003 14.6524C18.8137 14.6722 19.0181 14.6938 19.3135 14.7171C19.6089 14.7369 19.9155 14.7584 20.2333 14.7817H23.1633C23.4358 14.7619 23.697 14.7404 23.9468 14.7171C24.1965 14.6973 24.3895 14.6758 24.5258 14.6524L24.5625 14.8147ZM49.2376 2.68495C49.0103 2.79293 48.7832 2.93353 48.5562 3.10676C48.329 3.27961 48.2042 3.60393 48.1818 4.07973C48.161 4.59864 48.1383 5.25811 48.1138 6.05812C48.1138 6.83651 48.1034 7.72298 48.0827 8.71752C48.0827 9.71215 48.0723 10.7932 48.0515 11.9608V15.5932C48.0307 16.9986 47.849 18.1986 47.5062 19.1932C47.1656 20.1878 46.7113 21.0202 46.1436 21.6905C45.5985 22.3608 44.9853 22.8905 44.304 23.2797C43.6453 23.6689 42.9867 23.9608 42.3281 24.1554C41.6921 24.3717 41.0903 24.5014 40.5226 24.5445C39.9548 24.6094 39.5119 24.6418 39.1939 24.6418C37.8994 24.6418 36.6503 24.4797 35.4465 24.1554C34.2428 23.8528 33.1868 23.3555 32.2783 22.6635C31.3699 21.9716 30.6431 21.0743 30.0981 19.9716C29.553 18.8689 29.2805 17.5284 29.2805 15.95V12.2851V8.91212C29.2805 7.87427 29.2701 6.94455 29.2493 6.12295C29.2493 5.2797 29.2389 4.59861 29.2181 4.0797C29.1974 3.60401 29.0725 3.27969 28.8436 3.10674C28.6164 2.9339 28.3893 2.79329 28.1623 2.68492L28.1934 2.52296C28.3069 2.54273 28.4886 2.56428 28.7387 2.5876C29.0113 2.60737 29.2838 2.62892 29.5563 2.65224C29.8517 2.65224 30.1356 2.66213 30.408 2.6819H31.6344C31.907 2.66213 32.1909 2.65224 32.4861 2.65224C32.7815 2.63246 33.054 2.61092 33.3037 2.5876C33.5762 2.56782 33.7692 2.54628 33.8826 2.52296L33.9138 2.68492C33.6641 2.7929 33.4256 2.9335 33.1984 3.10674C32.994 3.27958 32.8804 3.6039 32.8575 4.0797C32.8367 4.59861 32.8141 5.2797 32.7896 6.12295V15.9499C32.7896 18.3067 33.3687 20.0472 34.527 21.1715C35.6853 22.2959 37.4 22.858 39.6711 22.858C40.3297 22.858 41.0792 22.7823 41.9195 22.6308C42.7599 22.458 43.5434 22.112 44.2701 21.593C45.0196 21.0741 45.6442 20.3389 46.1438 19.3876C46.6662 18.4362 46.9274 17.1714 46.9274 15.593C46.9274 13.8849 46.917 12.4255 46.8962 11.2147C46.8962 9.98224 46.8858 8.93359 46.8651 8.06871C46.8651 7.18224 46.8547 6.42548 46.8339 5.79844C46.8131 5.17143 46.7905 4.59847 46.7659 4.07953C46.7452 3.60384 46.6203 3.27952 46.3914 3.10657C46.1642 2.93373 45.9371 2.79311 45.7101 2.68473L45.7413 2.52279C45.991 2.56588 46.2748 2.60919 46.5929 2.65271C46.9107 2.67249 47.206 2.68238 47.4787 2.68238C47.7284 2.68238 48.0122 2.67249 48.3303 2.65271C48.671 2.60962 48.9662 2.56631 49.2161 2.52279L49.2376 2.68495ZM73.9576 8.62006L73.7532 8.6847C72.9583 7.04145 71.8228 5.73335 70.3466 4.76038C68.893 3.7874 67.0648 3.30091 64.8618 3.30091C63.6354 3.30091 62.4657 3.54955 61.3529 4.04682C60.24 4.52253 59.2634 5.20361 58.4231 6.09007C57.6055 6.95493 56.9469 8.00358 56.4472 9.23602C55.9476 10.4685 55.6978 11.8306 55.6978 13.3225C55.6978 14.8144 55.9476 16.1765 56.4473 17.409C56.947 18.6414 57.6056 19.7008 58.4232 20.5873C59.2635 21.4522 60.24 22.1225 61.3529 22.5982C62.4658 23.0738 63.6354 23.3116 64.8618 23.3116C67.0421 23.3116 68.8136 22.9873 70.1763 22.3387C71.5616 21.6684 72.7312 20.6522 73.6851 19.2901L73.8895 19.3547L73.8216 21.4304C73.2992 21.9493 72.6973 22.4141 72.016 22.8249C71.3347 23.2141 70.5966 23.5492 69.8017 23.8303C69.0295 24.0898 68.2232 24.2844 67.3829 24.4141C66.5426 24.5656 65.7023 24.6413 64.862 24.6413C63.1132 24.6413 61.4439 24.3711 59.8541 23.8305C58.2643 23.29 56.8676 22.5332 55.6639 21.5602C54.4602 20.5657 53.5063 19.3765 52.8023 17.9927C52.0982 16.5873 51.7462 15.0306 51.7462 13.3224C51.7462 11.6143 52.0982 10.0684 52.8023 8.68464C53.5063 7.27921 54.4602 6.07922 55.6639 5.08465C56.8676 4.09004 58.2643 3.33329 59.8541 2.81437C61.4439 2.27382 63.1132 2.00354 64.862 2.00354C65.7023 2.00354 66.5426 2.0684 67.3829 2.19813C68.2233 2.32786 69.0295 2.53327 69.8017 2.81437C70.5966 3.07383 71.3347 3.40897 72.016 3.8198C72.6973 4.20898 73.2992 4.66303 73.8216 5.18195L73.9576 8.62006ZM109.901 24.0903C109.787 24.0705 109.594 24.049 109.322 24.0257C109.072 24.0257 108.799 24.0158 108.504 23.996C108.209 23.996 107.925 23.9861 107.652 23.9663H105.609C105.336 23.9861 105.063 24.0076 104.791 24.031C104.541 24.0507 104.348 24.0723 104.212 24.0956L104.181 23.9656C104.408 23.8577 104.635 23.7171 104.862 23.5438C105.089 23.371 105.214 23.0467 105.237 22.5709C105.257 22.0519 105.268 21.5114 105.268 20.9493C105.289 20.3871 105.299 19.7492 105.299 19.0357V16.6033V13.3276V10.052V7.58713C105.299 6.87362 105.289 6.24659 105.268 5.70604C105.268 5.14388 105.257 4.60334 105.237 4.08443C105.216 3.60874 105.091 3.28442 104.862 3.11147C104.635 2.91687 104.408 2.76558 104.181 2.65758L104.212 2.52769C104.348 2.57078 104.541 2.60321 104.791 2.62498C105.063 2.62498 105.336 2.63487 105.609 2.65465C105.904 2.67442 106.188 2.68431 106.46 2.68431H107.652C107.925 2.66453 108.209 2.65465 108.504 2.65465C108.799 2.63487 109.072 2.61332 109.322 2.59C109.594 2.57023 109.787 2.54868 109.901 2.52536L109.932 2.65532C109.682 2.76329 109.444 2.91458 109.216 3.10917C109.012 3.28201 108.898 3.60633 108.875 4.08213C108.855 4.60105 108.832 5.14158 108.808 5.70374V20.947C108.828 21.5091 108.851 22.0497 108.875 22.5686C108.896 23.0443 109.01 23.3686 109.216 23.5415C109.444 23.7144 109.682 23.855 109.932 23.9633L109.901 24.0903Z" fill="white"/>
</g>
<defs>
<clipPath id="clip0_35_800">
<rect width="109.387" height="25.2431" fill="white" transform="translate(0.545166 0.701172)"/>
</clipPath>
</defs>
</svg>
