<svg width="65" height="27" viewBox="0 0 65 27" fill="none" xmlns="http://www.w3.org/2000/svg">
<g clip-path="url(#clip0_35_798)">
<path d="M61.2723 25.852L51.8186 0.0227119L51.8121 0.00561523H51.6255L49.6788 5.31343L46.1347 14.9765L46.1264 14.9688C44.898 13.8932 43.1651 13.2209 40.9825 12.9705L40.3169 12.9023L40.9772 12.8183C44.5764 12.1765 46.9958 9.92072 46.9958 7.20299C46.9958 3.47617 43.4636 0.874885 38.4038 0.874885H27.8763V1.06358H30.9353V20.3207L23.5061 0.0226486L23.4994 0.00561523H23.3128L21.366 5.31343L13.8573 25.7855L13.8111 25.7908C13.6828 25.8065 13.5559 25.819 13.4303 25.8284C13.2415 25.8431 13.0537 25.8519 12.8653 25.8519H5.27843L19.7001 1.06352L19.8073 0.877228H2.16903V8.54539H2.35618C2.38936 4.81034 4.58132 1.06352 9.42428 1.06352H15.2669L0.736328 26.0376H20.3119V18.691H20.1247C20.0992 21.9464 18.2395 25.0385 14.1956 25.7367L14.067 25.7585L17.1468 17.358H25.7743L28.883 25.852H25.8164V26.0377H37.853V25.852H34.7732V13.0393H38.3268C41.9432 13.0393 44.0173 14.6426 44.0173 17.4367V19.7094C44.0173 19.9599 44.0344 20.326 44.0534 20.6322V20.6434L42.1433 25.8507H39.6481V26.0365H44.8132V25.8507H42.3448L44.0842 21.1089C44.0878 21.1547 44.0896 21.1824 44.0896 21.1824L44.1376 21.6096L44.1838 21.8923C44.474 23.6408 45.1479 24.9262 46.1862 25.7126L46.3355 25.8202C47.1243 26.3644 48.1046 26.64 49.2506 26.64C50.7686 26.64 51.7807 26.2645 52.6164 25.3806L52.5069 25.2783C51.7369 25.9835 51.0907 26.2692 50.2811 26.2692C48.9017 26.2692 48.1798 24.6088 48.1798 22.9714V19.787C48.1871 18.9969 48.0624 18.211 47.8108 17.4614L47.7765 17.3626V17.3591H54.0869L57.1957 25.8531H54.129V26.0388H64.5452V25.8531L61.2723 25.852ZM17.2155 17.1722L21.4656 5.58501L25.7062 17.1722H17.2155ZM34.775 12.8529V1.06352H37.4875C41.111 1.06352 43.024 3.20111 43.024 7.24301C43.024 11.5417 41.9259 12.8529 38.3268 12.8529H34.775ZM47.7029 17.1722L47.6846 17.1264C47.4041 16.4486 46.9958 15.8302 46.4816 15.3044L46.304 15.128L46.285 15.1104L49.7758 5.58501L54.0164 17.1722H47.7029Z" fill="white"/>
</g>
<defs>
<clipPath id="clip0_35_798">
<rect width="63.8088" height="26.6454" fill="white" transform="translate(0.736328)"/>
</clipPath>
</defs>
</svg>
